<svg xmlns="http://www.w3.org/2000/svg" viewBox="-40 -40 80 80">
  <!-- top -->
  <g transform="translate(0, -7)">
    <path
      fill="#ee964b"
      d="
        M 0 4
        L -20 -16
        L -20 -20
        A 30 30 0 0 1 20 -20
        L 20 -16
        z
      "
    />
    <path
      fill="#f4d35e"
      d="
        M 0 0
        L -20 -20
        A 30 30 0 0 1 20 -20
        z
      "
    />
    <circle fill="#ee964b" cx="-6" cy="-13" r="2" />
    <circle fill="#ee964b" cx="-1" cy="-20" r="3" />
    <circle fill="#ee964b" cx="6" cy="-13" r="4" />
  </g>

  <!-- left -->
  <g transform="translate(-7,0)">
    <path
      fill="#ee964b"
      d="
        M 0 4
        L -20 24
        A 30 30 0 0 1 -20 -16
        L 0 0
        z
      "
    />
    <path
      fill="#f4d35e"
      d="
        M 0 0
        L -20 20
        A 30 30 0 0 1 -20 -20
        z
      "
    />
    <circle fill="#ee964b" cx="-17" cy="10" r="2" />
    <circle fill="#ee964b" cx="-15" cy="-8" r="2" />
    <circle fill="#ee964b" cx="-9" cy="0" r="3" />
    <circle fill="#ee964b" cx="-19" cy="1" r="4" />
  </g>

  <!-- right -->
  <g transform="translate(7, 0)">
    <path
      fill="#ee964b"
      d="
        M 0 0
        L 20 -16
        A 30 30 0 0 1 20 24
        L 20 24
        L 0 4
        z
      "
    />
    <path
      fill="#f4d35e"
      d="
        M 0 0
        L 20 -20
        A 30 30 0 0 1 20 20
        z
      "
    />
    <circle fill="#ee964b" cx="17" cy="-7" r="2" />
    <circle fill="#ee964b" cx="10" cy="1" r="3" />
    <circle fill="#ee964b" cx="19" cy="5" r="4" />
  </g>

  <!-- bottom -->
  <g transform="translate(0, 7)">
    <path
      fill="#ee964b"
      d="
        M 0 0
        L 20 20 
        L 20 24
        A 30 30 0 0 1 -20 24
        L -20 20
        z
      "
    />
    <path
      fill="#f4d35e"
      d="
        M 0 0
        L 20 20
        A 30 30 0 0 1 -20 20
        z
      "
    />
    <circle fill="#ee964b" cx="2" cy="11" r="2" />
    <circle fill="#ee964b" cx="6" cy="19" r="3" />
    <circle fill="#ee964b" cx="-5" cy="16" r="4" />
  </g>
</svg>
